<svg width="195" height="172" viewBox="0 0 195 172" fill="none" xmlns="http://www.w3.org/2000/svg">
<path d="M3.11169 10C3.11169 4.47716 7.58885 0 13.1117 0H181.888C187.411 0 191.888 4.47715 191.888 10V77.4097C191.888 93.9783 178.457 107.41 161.888 107.41H33.1117C16.5432 107.41 3.11169 93.9783 3.11169 77.4097V10Z" fill="#EF2D56"/>
<path d="M3.11169 15.4247C3.11169 9.90189 7.58885 5.42473 13.1117 5.42473H181.888C187.411 5.42473 191.888 9.90188 191.888 15.4247V82.8345C191.888 99.403 178.457 112.834 161.888 112.834H33.1117C16.5432 112.834 3.11169 99.403 3.11169 82.8345V15.4247Z" fill="#ED7D3A"/>
<path d="M0 21.9344C0 16.4116 4.47715 11.9344 10 11.9344H185C190.523 11.9344 195 16.4116 195 21.9344V92.599C195 109.168 181.569 122.599 165 122.599H30C13.4315 122.599 0 109.168 0 92.599V21.9344Z" fill="#2FBF71"/>
<path d="M26.9681 0H65.3458V63.2672C65.3458 73.8649 56.7546 82.456 46.1569 82.456V82.456C35.5592 82.456 26.9681 73.8648 26.9681 63.2671V0Z" fill="#363537"/>
<circle cx="46" cy="61" r="7" fill="#D9FFEA"/>
<path d="M12.084 160.599V155.353H19.222C20.5407 155.353 21.5727 154.966 22.318 154.192C23.0633 153.418 23.436 152.472 23.436 151.354C23.436 150.58 23.264 149.892 22.92 149.29C22.576 148.688 22.0887 148.215 21.458 147.871C20.856 147.527 20.1107 147.355 19.222 147.355H12.084V142.238H18.663C19.781 142.238 20.684 141.966 21.372 141.421C22.06 140.848 22.404 139.988 22.404 138.841C22.404 137.723 22.06 136.892 21.372 136.347C20.684 135.774 19.781 135.487 18.663 135.487H12.084V130.241H19.953C21.9023 130.241 23.5507 130.599 24.898 131.316C26.274 132.033 27.3203 132.993 28.037 134.197C28.7537 135.401 29.112 136.734 29.112 138.196C29.112 140.059 28.51 141.636 27.306 142.926C26.102 144.216 24.3247 145.105 21.974 145.592L22.146 143.313C24.6973 143.8 26.661 144.789 28.037 146.28C29.4417 147.771 30.144 149.605 30.144 151.784C30.144 153.447 29.7283 154.952 28.897 156.299C28.0943 157.618 26.919 158.664 25.371 159.438C23.8517 160.212 22.017 160.599 19.867 160.599H12.084ZM6.924 160.599V130.241H13.589V160.599H6.924ZM43.1569 161.072C41.2362 161.072 39.5305 160.685 38.0399 159.911C36.5779 159.108 35.4312 158.019 34.5999 156.643C33.7685 155.238 33.3529 153.633 33.3529 151.827V139.701H39.9319V151.741C39.9319 152.458 40.0465 153.074 40.2759 153.59C40.5339 154.106 40.9065 154.507 41.3939 154.794C41.8812 155.081 42.4689 155.224 43.1569 155.224C44.1315 155.224 44.9055 154.923 45.4789 154.321C46.0522 153.69 46.3389 152.83 46.3389 151.741V139.701H52.9179V151.784C52.9179 153.619 52.5022 155.238 51.6709 156.643C50.8395 158.019 49.6929 159.108 48.2309 159.911C46.7689 160.685 45.0775 161.072 43.1569 161.072ZM65.9496 161.029C63.9716 161.029 62.2086 160.556 60.6606 159.61C59.1412 158.664 57.9372 157.374 57.0486 155.74C56.1886 154.106 55.7586 152.243 55.7586 150.15C55.7586 148.057 56.1886 146.194 57.0486 144.56C57.9372 142.926 59.1412 141.636 60.6606 140.69C62.2086 139.744 63.9716 139.271 65.9496 139.271C67.3829 139.271 68.6729 139.543 69.8196 140.088C70.9949 140.633 71.9552 141.392 72.7006 142.367C73.4746 143.313 73.9046 144.402 73.9906 145.635V154.45C73.9046 155.683 73.4889 156.801 72.7436 157.804C71.9982 158.779 71.0379 159.567 69.8626 160.169C68.6872 160.742 67.3829 161.029 65.9496 161.029ZM67.1106 155.095C68.0566 155.095 68.8736 154.894 69.5616 154.493C70.2496 154.063 70.7942 153.475 71.1956 152.73C71.5969 151.985 71.7976 151.125 71.7976 150.15C71.7976 149.175 71.5969 148.33 71.1956 147.613C70.8229 146.868 70.2782 146.28 69.5616 145.85C68.8736 145.42 68.0709 145.205 67.1536 145.205C66.2362 145.205 65.4192 145.42 64.7026 145.85C64.0146 146.28 63.4556 146.868 63.0256 147.613C62.6242 148.358 62.4236 149.204 62.4236 150.15C62.4236 151.096 62.6242 151.942 63.0256 152.687C63.4269 153.432 63.9859 154.02 64.7026 154.45C65.4192 154.88 66.2219 155.095 67.1106 155.095ZM77.9896 160.599H71.5396V154.966L72.5286 149.892L71.4106 144.818V129.381H77.9896V160.599ZM91.5228 161.029C89.5448 161.029 87.7818 160.556 86.2338 159.61C84.7145 158.664 83.5105 157.374 82.6218 155.74C81.7618 154.106 81.3318 152.243 81.3318 150.15C81.3318 148.057 81.7618 146.194 82.6218 144.56C83.5105 142.926 84.7145 141.636 86.2338 140.69C87.7818 139.744 89.5448 139.271 91.5228 139.271C92.9561 139.271 94.2461 139.543 95.3928 140.088C96.5681 140.633 97.5285 141.392 98.2738 142.367C99.0478 143.313 99.4778 144.402 99.5638 145.635V154.45C99.4778 155.683 99.0621 156.801 98.3168 157.804C97.5715 158.779 96.6111 159.567 95.4358 160.169C94.2605 160.742 92.9561 161.029 91.5228 161.029ZM92.6838 155.095C93.6298 155.095 94.4468 154.894 95.1348 154.493C95.8228 154.063 96.3675 153.475 96.7688 152.73C97.1701 151.985 97.3708 151.125 97.3708 150.15C97.3708 149.175 97.1701 148.33 96.7688 147.613C96.3961 146.868 95.8515 146.28 95.1348 145.85C94.4468 145.42 93.6441 145.205 92.7268 145.205C91.8095 145.205 90.9925 145.42 90.2758 145.85C89.5878 146.28 89.0288 146.868 88.5988 147.613C88.1975 148.358 87.9968 149.204 87.9968 150.15C87.9968 151.096 88.1975 151.942 88.5988 152.687C89.0001 153.432 89.5591 154.02 90.2758 154.45C90.9925 154.88 91.7951 155.095 92.6838 155.095ZM103.563 160.599H97.1128V154.966L98.1018 149.892L96.9838 144.818V129.381H103.563V160.599ZM114.645 160.685L106.045 139.701H113.14L118.601 156.342H115.978L121.568 139.701H128.663L119.719 160.685H114.645ZM109.27 169.414L115.548 155.869L119.719 160.685L116.021 169.414H109.27ZM138.088 161.072C136.167 161.072 134.49 160.728 133.057 160.04C131.652 159.323 130.448 158.334 129.445 157.073L133.96 152.73C134.476 153.447 135.078 153.991 135.766 154.364C136.482 154.737 137.285 154.923 138.174 154.923C139.034 154.923 139.779 154.751 140.41 154.407C141.04 154.034 141.542 153.518 141.915 152.859C142.287 152.171 142.474 151.325 142.474 150.322V130.241H149.268V149.935C149.268 152.2 148.809 154.163 147.892 155.826C146.974 157.489 145.684 158.779 144.022 159.696C142.359 160.613 140.381 161.072 138.088 161.072ZM164.371 161.072C162.106 161.072 160.085 160.613 158.308 159.696C156.559 158.75 155.183 157.446 154.18 155.783C153.176 154.12 152.675 152.243 152.675 150.15C152.675 148.057 153.162 146.194 154.137 144.56C155.14 142.897 156.487 141.593 158.179 140.647C159.87 139.701 161.776 139.228 163.898 139.228C165.962 139.228 167.782 139.672 169.359 140.561C170.935 141.45 172.168 142.682 173.057 144.259C173.974 145.836 174.433 147.642 174.433 149.677C174.433 150.05 174.404 150.451 174.347 150.881C174.318 151.282 174.246 151.755 174.132 152.3L156.115 152.343V147.828L171.337 147.785L168.499 149.677C168.47 148.473 168.284 147.484 167.94 146.71C167.596 145.907 167.08 145.305 166.392 144.904C165.732 144.474 164.915 144.259 163.941 144.259C162.909 144.259 162.006 144.503 161.232 144.99C160.486 145.449 159.899 146.108 159.469 146.968C159.067 147.828 158.867 148.874 158.867 150.107C158.867 151.34 159.082 152.4 159.512 153.289C159.97 154.149 160.601 154.823 161.404 155.31C162.235 155.769 163.21 155.998 164.328 155.998C165.36 155.998 166.291 155.826 167.123 155.482C167.954 155.109 168.685 154.565 169.316 153.848L172.928 157.46C171.896 158.664 170.649 159.567 169.187 160.169C167.725 160.771 166.119 161.072 164.371 161.072ZM180.113 160.599V131.058H186.692V160.599H180.113ZM175.383 145.291V139.701H191.422V145.291H175.383Z" fill="white"/>
</svg>
