<svg width="168" height="106" viewBox="0 0 168 106" fill="none" xmlns="http://www.w3.org/2000/svg">
<path d="M2.68085 10C2.68085 4.47716 7.158 0 12.6808 0H155.319C160.842 0 165.319 4.47715 165.319 10V62.5376C165.319 79.1062 151.888 92.5376 135.319 92.5376H32.6809C16.1123 92.5376 2.68085 79.1062 2.68085 62.5376V10Z" fill="#EF2D56"/>
<path d="M2.68085 14.6736C2.68085 9.15077 7.158 4.67361 12.6808 4.67361H155.319C160.842 4.67361 165.319 9.15077 165.319 14.6736V67.2112C165.319 83.7798 151.888 97.2112 135.319 97.2112H32.6809C16.1123 97.2112 2.68085 83.7798 2.68085 67.2112V14.6736Z" fill="#ED7D3A"/>
<path d="M0 20.282C0 14.7591 4.47715 10.282 10 10.282H158C163.523 10.282 168 14.7591 168 20.282V75.6238C168 92.1923 154.569 105.624 138 105.624H30C13.4315 105.624 0 92.1923 0 75.6238V20.282Z" fill="#2FBF71"/>
<path d="M23.2341 0H56.2979V54.5071C56.2979 63.6374 48.8963 71.039 39.766 71.039C30.6357 71.039 23.2341 63.6374 23.2341 54.5071V0Z" fill="#363537"/>
<circle cx="39.6308" cy="52.5538" r="6.03077" fill="#D9FFEA"/>
</svg>
