<svg width="195" height="123" viewBox="0 0 195 123" fill="none" xmlns="http://www.w3.org/2000/svg">
<rect width="195" height="123" fill="#1E1E1E"/>
<path d="M3.11169 10C3.11169 4.47716 7.58885 0 13.1117 0H181.888C187.411 0 191.888 4.47715 191.888 10V77.4097C191.888 93.9783 178.457 107.41 161.888 107.41H33.1117C16.5432 107.41 3.11169 93.9783 3.11169 77.4097V10Z" fill="#EF2D56"/>
<path d="M3.11169 15.4247C3.11169 9.90189 7.58885 5.42473 13.1117 5.42473H181.888C187.411 5.42473 191.888 9.90188 191.888 15.4247V82.8345C191.888 99.403 178.457 112.834 161.888 112.834H33.1117C16.5432 112.834 3.11169 99.403 3.11169 82.8345V15.4247Z" fill="#ED7D3A"/>
<path d="M0 21.9344C0 16.4116 4.47715 11.9344 10 11.9344H185C190.523 11.9344 195 16.4116 195 21.9344V92.599C195 109.168 181.569 122.599 165 122.599H30C13.4315 122.599 0 109.168 0 92.599V21.9344Z" fill="#2FBF71"/>
<path d="M26.9681 0H65.3458V63.2672C65.3458 73.8649 56.7546 82.456 46.1569 82.456V82.456C35.5592 82.456 26.9681 73.8648 26.9681 63.2671V0Z" fill="#363537"/>
<circle cx="46" cy="61" r="7" fill="#D9FFEA"/>
<path d="M78.512 82V79.072H82.496C83.232 79.072 83.808 78.856 84.224 78.424C84.64 77.992 84.848 77.464 84.848 76.84C84.848 76.408 84.752 76.024 84.56 75.688C84.368 75.352 84.096 75.088 83.744 74.896C83.408 74.704 82.992 74.608 82.496 74.608H78.512V71.752H82.184C82.808 71.752 83.312 71.6 83.696 71.296C84.08 70.976 84.272 70.496 84.272 69.856C84.272 69.232 84.08 68.768 83.696 68.464C83.312 68.144 82.808 67.984 82.184 67.984H78.512V65.056H82.904C83.992 65.056 84.912 65.256 85.664 65.656C86.432 66.056 87.016 66.592 87.416 67.264C87.816 67.936 88.016 68.68 88.016 69.496C88.016 70.536 87.68 71.416 87.008 72.136C86.336 72.856 85.344 73.352 84.032 73.624L84.128 72.352C85.552 72.624 86.648 73.176 87.416 74.008C88.2 74.84 88.592 75.864 88.592 77.08C88.592 78.008 88.36 78.848 87.896 79.6C87.448 80.336 86.792 80.92 85.928 81.352C85.08 81.784 84.056 82 82.856 82H78.512ZM75.632 82V65.056H79.352V82H75.632ZM95.855 82.264C94.783 82.264 93.831 82.048 92.999 81.616C92.183 81.168 91.543 80.56 91.079 79.792C90.615 79.008 90.383 78.112 90.383 77.104V70.336H94.055V77.056C94.055 77.456 94.119 77.8 94.247 78.088C94.391 78.376 94.599 78.6 94.871 78.76C95.143 78.92 95.471 79 95.855 79C96.399 79 96.831 78.832 97.151 78.496C97.471 78.144 97.631 77.664 97.631 77.056V70.336H101.303V77.08C101.303 78.104 101.071 79.008 100.607 79.792C100.143 80.56 99.503 81.168 98.687 81.616C97.871 82.048 96.927 82.264 95.855 82.264ZM108.577 82.24C107.473 82.24 106.489 81.976 105.625 81.448C104.777 80.92 104.105 80.2 103.609 79.288C103.129 78.376 102.889 77.336 102.889 76.168C102.889 75 103.129 73.96 103.609 73.048C104.105 72.136 104.777 71.416 105.625 70.888C106.489 70.36 107.473 70.096 108.577 70.096C109.377 70.096 110.097 70.248 110.737 70.552C111.393 70.856 111.929 71.28 112.345 71.824C112.777 72.352 113.017 72.96 113.065 73.648V78.568C113.017 79.256 112.785 79.88 112.369 80.44C111.953 80.984 111.417 81.424 110.761 81.76C110.105 82.08 109.377 82.24 108.577 82.24ZM109.225 78.928C109.753 78.928 110.209 78.816 110.593 78.592C110.977 78.352 111.281 78.024 111.505 77.608C111.729 77.192 111.841 76.712 111.841 76.168C111.841 75.624 111.729 75.152 111.505 74.752C111.297 74.336 110.993 74.008 110.593 73.768C110.209 73.528 109.761 73.408 109.249 73.408C108.737 73.408 108.281 73.528 107.881 73.768C107.497 74.008 107.185 74.336 106.945 74.752C106.721 75.168 106.609 75.64 106.609 76.168C106.609 76.696 106.721 77.168 106.945 77.584C107.169 78 107.481 78.328 107.881 78.568C108.281 78.808 108.729 78.928 109.225 78.928ZM115.297 82H111.697V78.856L112.249 76.024L111.625 73.192V64.576H115.297V82ZM122.85 82.24C121.746 82.24 120.762 81.976 119.898 81.448C119.05 80.92 118.378 80.2 117.882 79.288C117.402 78.376 117.162 77.336 117.162 76.168C117.162 75 117.402 73.96 117.882 73.048C118.378 72.136 119.05 71.416 119.898 70.888C120.762 70.36 121.746 70.096 122.85 70.096C123.65 70.096 124.37 70.248 125.01 70.552C125.666 70.856 126.202 71.28 126.618 71.824C127.05 72.352 127.29 72.96 127.338 73.648V78.568C127.29 79.256 127.058 79.88 126.642 80.44C126.226 80.984 125.69 81.424 125.034 81.76C124.378 82.08 123.65 82.24 122.85 82.24ZM123.498 78.928C124.026 78.928 124.482 78.816 124.866 78.592C125.25 78.352 125.554 78.024 125.778 77.608C126.002 77.192 126.114 76.712 126.114 76.168C126.114 75.624 126.002 75.152 125.778 74.752C125.57 74.336 125.266 74.008 124.866 73.768C124.482 73.528 124.034 73.408 123.522 73.408C123.01 73.408 122.554 73.528 122.154 73.768C121.77 74.008 121.458 74.336 121.218 74.752C120.994 75.168 120.882 75.64 120.882 76.168C120.882 76.696 120.994 77.168 121.218 77.584C121.442 78 121.754 78.328 122.154 78.568C122.554 78.808 123.002 78.928 123.498 78.928ZM129.57 82H125.97V78.856L126.522 76.024L125.898 73.192V64.576H129.57V82ZM135.755 82.048L130.955 70.336H134.915L137.963 79.624H136.499L139.619 70.336H143.579L138.587 82.048H135.755ZM132.755 86.92L136.259 79.36L138.587 82.048L136.523 86.92H132.755ZM148.84 82.264C147.768 82.264 146.832 82.072 146.032 81.688C145.248 81.288 144.576 80.736 144.016 80.032L146.536 77.608C146.824 78.008 147.16 78.312 147.544 78.52C147.944 78.728 148.392 78.832 148.888 78.832C149.368 78.832 149.784 78.736 150.136 78.544C150.488 78.336 150.768 78.048 150.976 77.68C151.184 77.296 151.288 76.824 151.288 76.264V65.056H155.08V76.048C155.08 77.312 154.824 78.408 154.312 79.336C153.8 80.264 153.08 80.984 152.152 81.496C151.224 82.008 150.12 82.264 148.84 82.264ZM163.509 82.264C162.245 82.264 161.117 82.008 160.125 81.496C159.149 80.968 158.381 80.24 157.821 79.312C157.261 78.384 156.981 77.336 156.981 76.168C156.981 75 157.253 73.96 157.797 73.048C158.357 72.12 159.109 71.392 160.053 70.864C160.997 70.336 162.061 70.072 163.245 70.072C164.397 70.072 165.413 70.32 166.293 70.816C167.173 71.312 167.861 72 168.357 72.88C168.869 73.76 169.125 74.768 169.125 75.904C169.125 76.112 169.109 76.336 169.077 76.576C169.061 76.8 169.021 77.064 168.957 77.368L158.901 77.392V74.872L167.397 74.848L165.813 75.904C165.797 75.232 165.693 74.68 165.501 74.248C165.309 73.8 165.021 73.464 164.637 73.24C164.269 73 163.813 72.88 163.269 72.88C162.693 72.88 162.189 73.016 161.757 73.288C161.341 73.544 161.013 73.912 160.773 74.392C160.549 74.872 160.437 75.456 160.437 76.144C160.437 76.832 160.557 77.424 160.797 77.92C161.053 78.4 161.405 78.776 161.853 79.048C162.317 79.304 162.861 79.432 163.485 79.432C164.061 79.432 164.581 79.336 165.045 79.144C165.509 78.936 165.917 78.632 166.269 78.232L168.285 80.248C167.709 80.92 167.013 81.424 166.197 81.76C165.381 82.096 164.485 82.264 163.509 82.264ZM172.296 82V65.512H175.968V82H172.296ZM169.656 73.456V70.336H178.608V73.456H169.656Z" fill="white"/>
<path d="M103 85C103.833 87.1667 110.6 90 117 90C123.4 90 127.333 86.3333 131 85" stroke="white" stroke-width="1.4" stroke-linecap="round"/>
</svg>
