<svg width="331" height="106" viewBox="0 0 331 106" fill="none" xmlns="http://www.w3.org/2000/svg">
<path d="M2.68085 10C2.68085 4.47716 7.158 0 12.6808 0H155.319C160.842 0 165.319 4.47715 165.319 10V62.5376C165.319 79.1062 151.888 92.5376 135.319 92.5376H32.6809C16.1123 92.5376 2.68085 79.1062 2.68085 62.5376V10Z" fill="#EF2D56"/>
<path d="M2.68085 14.6736C2.68085 9.15077 7.158 4.67361 12.6808 4.67361H155.319C160.842 4.67361 165.319 9.15077 165.319 14.6736V67.2112C165.319 83.7798 151.888 97.2112 135.319 97.2112H32.6809C16.1123 97.2112 2.68085 83.7798 2.68085 67.2112V14.6736Z" fill="#ED7D3A"/>
<path d="M0 20.282C0 14.7591 4.47715 10.282 10 10.282H158C163.523 10.282 168 14.7591 168 20.282V75.6238C168 92.1923 154.569 105.624 138 105.624H30C13.4315 105.624 0 92.1923 0 75.6238V20.282Z" fill="#2FBF71"/>
<path d="M23.2341 0H56.2979V54.5071C56.2979 63.6374 48.8963 71.039 39.766 71.039V71.039C30.6357 71.039 23.2341 63.6374 23.2341 54.5071V0Z" fill="#363537"/>
<circle cx="39.6308" cy="52.5538" r="6.03077" fill="#D9FFEA"/>
<path d="M187.34 53V46.29H196.47C198.157 46.29 199.477 45.795 200.43 44.805C201.383 43.815 201.86 42.605 201.86 41.175C201.86 40.185 201.64 39.305 201.2 38.535C200.76 37.765 200.137 37.16 199.33 36.72C198.56 36.28 197.607 36.06 196.47 36.06H187.34V29.515H195.755C197.185 29.515 198.34 29.1667 199.22 28.47C200.1 27.7367 200.54 26.6367 200.54 25.17C200.54 23.74 200.1 22.6767 199.22 21.98C198.34 21.2467 197.185 20.88 195.755 20.88H187.34V14.17H197.405C199.898 14.17 202.007 14.6283 203.73 15.545C205.49 16.4617 206.828 17.69 207.745 19.23C208.662 20.77 209.12 22.475 209.12 24.345C209.12 26.7283 208.35 28.745 206.81 30.395C205.27 32.045 202.997 33.1817 199.99 33.805L200.21 30.89C203.473 31.5133 205.985 32.7783 207.745 34.685C209.542 36.5917 210.44 38.9383 210.44 41.725C210.44 43.8517 209.908 45.7767 208.845 47.5C207.818 49.1867 206.315 50.525 204.335 51.515C202.392 52.505 200.045 53 197.295 53H187.34ZM180.74 53V14.17H189.265V53H180.74ZM225.434 53.605C222.978 53.605 220.796 53.11 218.889 52.12C217.019 51.0933 215.553 49.7 214.489 47.94C213.426 46.1433 212.894 44.09 212.894 41.78V26.27H221.309V41.67C221.309 42.5867 221.456 43.375 221.749 44.035C222.079 44.695 222.556 45.2083 223.179 45.575C223.803 45.9417 224.554 46.125 225.434 46.125C226.681 46.125 227.671 45.74 228.404 44.97C229.138 44.1633 229.504 43.0633 229.504 41.67V26.27H237.919V41.725C237.919 44.0717 237.388 46.1433 236.324 47.94C235.261 49.7 233.794 51.0933 231.924 52.12C230.054 53.11 227.891 53.605 225.434 53.605ZM252.938 53.55C250.408 53.55 248.153 52.945 246.173 51.735C244.229 50.525 242.689 48.875 241.553 46.785C240.453 44.695 239.903 42.3117 239.903 39.635C239.903 36.9583 240.453 34.575 241.553 32.485C242.689 30.395 244.229 28.745 246.173 27.535C248.153 26.325 250.408 25.72 252.938 25.72C254.771 25.72 256.421 26.0683 257.888 26.765C259.391 27.4617 260.619 28.4333 261.573 29.68C262.563 30.89 263.113 32.2833 263.223 33.86V45.135C263.113 46.7117 262.581 48.1417 261.628 49.425C260.674 50.6717 259.446 51.68 257.943 52.45C256.439 53.1833 254.771 53.55 252.938 53.55ZM254.423 45.96C255.633 45.96 256.678 45.7033 257.558 45.19C258.438 44.64 259.134 43.8883 259.648 42.935C260.161 41.9817 260.418 40.8817 260.418 39.635C260.418 38.3883 260.161 37.3067 259.648 36.39C259.171 35.4367 258.474 34.685 257.558 34.135C256.678 33.585 255.651 33.31 254.478 33.31C253.304 33.31 252.259 33.585 251.343 34.135C250.463 34.685 249.748 35.4367 249.198 36.39C248.684 37.3433 248.428 38.425 248.428 39.635C248.428 40.845 248.684 41.9267 249.198 42.88C249.711 43.8333 250.426 44.585 251.343 45.135C252.259 45.685 253.286 45.96 254.423 45.96ZM268.338 53H260.088V45.795L261.353 39.305L259.923 32.815V13.07H268.338V53ZM283.998 53.55C281.468 53.55 279.213 52.945 277.233 51.735C275.289 50.525 273.749 48.875 272.613 46.785C271.513 44.695 270.963 42.3117 270.963 39.635C270.963 36.9583 271.513 34.575 272.613 32.485C273.749 30.395 275.289 28.745 277.233 27.535C279.213 26.325 281.468 25.72 283.998 25.72C285.831 25.72 287.481 26.0683 288.948 26.765C290.451 27.4617 291.679 28.4333 292.633 29.68C293.623 30.89 294.173 32.2833 294.283 33.86V45.135C294.173 46.7117 293.641 48.1417 292.688 49.425C291.734 50.6717 290.506 51.68 289.003 52.45C287.499 53.1833 285.831 53.55 283.998 53.55ZM285.483 45.96C286.693 45.96 287.738 45.7033 288.618 45.19C289.498 44.64 290.194 43.8883 290.708 42.935C291.221 41.9817 291.478 40.8817 291.478 39.635C291.478 38.3883 291.221 37.3067 290.708 36.39C290.231 35.4367 289.534 34.685 288.618 34.135C287.738 33.585 286.711 33.31 285.538 33.31C284.364 33.31 283.319 33.585 282.403 34.135C281.523 34.685 280.808 35.4367 280.258 36.39C279.744 37.3433 279.488 38.425 279.488 39.635C279.488 40.845 279.744 41.9267 280.258 42.88C280.771 43.8333 281.486 44.585 282.403 45.135C283.319 45.685 284.346 45.96 285.483 45.96ZM299.398 53H291.148V45.795L292.413 39.305L290.983 32.815V13.07H299.398V53ZM311.923 53.11L300.923 26.27H309.998L316.983 47.555H313.628L320.778 26.27H329.853L318.413 53.11H311.923ZM305.048 64.275L313.078 46.95L318.413 53.11L313.683 64.275H305.048ZM188.825 96.605C186.368 96.605 184.223 96.165 182.39 95.285C180.593 94.3683 179.053 93.1033 177.77 91.49L183.545 85.935C184.205 86.8517 184.975 87.5483 185.855 88.025C186.772 88.5017 187.798 88.74 188.935 88.74C190.035 88.74 190.988 88.52 191.795 88.08C192.602 87.6033 193.243 86.9433 193.72 86.1C194.197 85.22 194.435 84.1383 194.435 82.855V57.17H203.125V82.36C203.125 85.2567 202.538 87.7683 201.365 89.895C200.192 92.0217 198.542 93.6717 196.415 94.845C194.288 96.0183 191.758 96.605 188.825 96.605ZM220.792 96.605C217.896 96.605 215.311 96.0183 213.037 94.845C210.801 93.635 209.041 91.9667 207.757 89.84C206.474 87.7133 205.832 85.3117 205.832 82.635C205.832 79.9583 206.456 77.575 207.702 75.485C208.986 73.3583 210.709 71.69 212.872 70.48C215.036 69.27 217.474 68.665 220.187 68.665C222.827 68.665 225.156 69.2333 227.172 70.37C229.189 71.5067 230.766 73.0833 231.902 75.1C233.076 77.1167 233.662 79.4267 233.662 82.03C233.662 82.5067 233.626 83.02 233.552 83.57C233.516 84.0833 233.424 84.6883 233.277 85.385L210.232 85.44V79.665L229.702 79.61L226.072 82.03C226.036 80.49 225.797 79.225 225.357 78.235C224.917 77.2083 224.257 76.4383 223.377 75.925C222.534 75.375 221.489 75.1 220.242 75.1C218.922 75.1 217.767 75.4117 216.777 76.035C215.824 76.6217 215.072 77.465 214.522 78.565C214.009 79.665 213.752 81.0033 213.752 82.58C213.752 84.1567 214.027 85.5133 214.577 86.65C215.164 87.75 215.971 88.6117 216.997 89.235C218.061 89.8217 219.307 90.115 220.737 90.115C222.057 90.115 223.249 89.895 224.312 89.455C225.376 88.9783 226.311 88.2817 227.117 87.365L231.737 91.985C230.417 93.525 228.822 94.68 226.952 95.45C225.082 96.22 223.029 96.605 220.792 96.605ZM239.278 96V58.215H247.693V96H239.278ZM233.228 76.42V69.27H253.743V76.42H233.228Z" fill="white"/>
</svg>
